<svg xmlns="http://www.w3.org/2000/svg" width="83" height="41" viewBox="0 0 83 41">
  <defs>
    <style>
      .cls-1 {
        fill: #fff;
        fill-rule: evenodd;
      }
    </style>
  </defs>
  <path class="cls-1" d="M531.354,946.073C541.768,959.029,548.018,958,550,958c2.127,0,10-2.554,10-12a11.559,11.559,0,0,0-11-12c-2.678,0-8.853,1.628-17.646,12.072m-4.854-6.336C536.96,926.7,544.143,926,549,926c7.488,0,19,6.8,19,20,0,14.893-13.061,21-19,21-5.482,0-12.708-3.051-22.5-14.867m0,0C516.708,963.949,509.482,967,504,967c-5.939,0-19-6.107-19-21,0-13.2,11.512-20,19-20,4.857,0,12.04.7,22.5,13.737m-4.854,6.336C512.853,935.629,506.678,934,504,934a11.559,11.559,0,0,0-11,12c0,9.447,7.873,12,10,12,1.982,0,8.232,1.028,18.646-11.928" transform="translate(-485 -926)"/>
</svg>
