<svg xmlns="http://www.w3.org/2000/svg" xmlns:xlink="http://www.w3.org/1999/xlink" width="64.5" height="41.531" viewBox="0 0 64.5 41.531">
  <defs>
    <style>
      .cls-1 {
        fill: #fff;
        fill-rule: evenodd;
        filter: url(#filter);
      }
    </style>
    <filter id="filter" x="1142.5" y="925.5" width="64.5" height="41.531" filterUnits="userSpaceOnUse">
      <feOffset result="offset" dx="3" in="SourceAlpha"/>
      <feGaussianBlur result="blur"/>
      <feFlood result="flood" flood-color="#232324" flood-opacity="0.4"/>
      <feComposite result="composite" operator="in" in2="blur"/>
      <feBlend result="blend" in="SourceGraphic"/>
    </filter>
  </defs>
  <path id="Cloud_base" data-name="Cloud base" class="cls-1" d="M1203.97,956.3a10.739,10.739,0,0,1-9.95,10.706v0.04h-39.89v-0.015a11.913,11.913,0,0,1-3.38-23.246c0-.084-0.01-0.165-0.01-0.249a11.3,11.3,0,0,1,17.73-9.3,14.149,14.149,0,0,1,27.22,5.417,14.013,14.013,0,0,1-1.32,5.968A10.743,10.743,0,0,1,1203.97,956.3Z" transform="translate(-1142.5 -925.5)"/>
</svg>
