<svg xmlns="http://www.w3.org/2000/svg" xmlns:xlink="http://www.w3.org/1999/xlink" width="56" height="60" viewBox="0 0 56 60">
  <defs>
    <style>
      .cls-1 {
        fill: #fff;
        fill-rule: evenodd;
        filter: url(#filter);
      }
    </style>
    <filter id="filter" x="822" y="918" width="56" height="60" filterUnits="userSpaceOnUse">
      <feOffset result="offset" dy="4" in="SourceAlpha"/>
      <feGaussianBlur result="blur"/>
      <feFlood result="flood" flood-opacity="0.15"/>
      <feComposite result="composite" operator="in" in2="blur"/>
      <feBlend result="blend" in="SourceGraphic"/>
    </filter>
  </defs>
  <path id="Layer" class="cls-1" d="M870.116,946.231a14.252,14.252,0,0,0,3.4-2.485,15.253,15.253,0,0,0,.168-21.385,14.57,14.57,0,0,0-10.429-4.345,15.023,15.023,0,0,0-10.74,4.516A14.461,14.461,0,0,0,850,926.07a14.491,14.491,0,0,0-2.518-3.553,15.034,15.034,0,0,0-10.738-4.53,14.543,14.543,0,0,0-10.43,4.316,15.182,15.182,0,0,0,.169,21.329,13.746,13.746,0,0,0,3.55,2.52,14.414,14.414,0,0,0-3.437,2.4,15.005,15.005,0,0,0-4.551,10.782,14.653,14.653,0,0,0,14.72,14.678,15.127,15.127,0,0,0,10.646-4.366A14.617,14.617,0,0,0,850,966.041a14.563,14.563,0,0,0,2.585,3.6,15.128,15.128,0,0,0,10.647,4.367,14.653,14.653,0,0,0,14.72-14.677,15.013,15.013,0,0,0-4.551-10.784A14.228,14.228,0,0,0,870.116,946.231Zm-38.152-18.28a7.1,7.1,0,0,1,9.912.17C844.8,931,846.026,941.976,846,942s-10.941-1.43-13.867-4.305A6.81,6.81,0,0,1,831.964,927.951Zm9.832,35.071a7.27,7.27,0,0,1-9.818.161,6.24,6.24,0,0,1,.171-9.216c2.9-2.72,13.839-3.975,13.861-3.955S844.7,960.3,841.8,963.022Zm26.254,0.161a7.3,7.3,0,0,1-9.838-.161c-2.9-2.72-4.245-12.989-4.222-13.01s10.984,1.235,13.889,3.955A6.233,6.233,0,0,1,868.05,963.183Zm0-35.217a6.964,6.964,0,0,0-9.834.172c-2.9,2.9-4.243,13.838-4.22,13.86s10.98-1.315,13.883-4.213A6.94,6.94,0,0,0,868.051,927.966Z" transform="translate(-822 -918)"/>
</svg>
