<svg xmlns="http://www.w3.org/2000/svg" width="32" height="26" viewBox="0 0 32 26">
  <defs>
    <style>
      .cls-1 {
        fill: #fff;
        fill-rule: evenodd;
      }
    </style>
  </defs>
  <path id="twitter-icon" class="cls-1" d="M428,1561.08a13.238,13.238,0,0,1-3.772,1.03,6.579,6.579,0,0,0,2.887-3.63,13.324,13.324,0,0,1-4.168,1.59,6.572,6.572,0,0,0-11.187,5.99,18.669,18.669,0,0,1-13.532-6.86,6.565,6.565,0,0,0,2.032,8.76,6.51,6.51,0,0,1-2.974-.82c0,0.03,0,.06,0,0.09a6.56,6.56,0,0,0,5.267,6.43,6.578,6.578,0,0,1-1.73.23,6.285,6.285,0,0,1-1.235-.12,6.566,6.566,0,0,0,6.133,4.56,13.187,13.187,0,0,1-8.154,2.82,13.489,13.489,0,0,1-1.566-.1,18.519,18.519,0,0,0,10.063,2.95c12.077,0,18.679-10,18.679-18.68,0-.28-0.006-0.56-0.017-0.85A13.328,13.328,0,0,0,428,1561.08Z" transform="translate(-396 -1558)"/>
</svg>
