<?xml version="1.0" encoding="utf-8"?><svg viewBox="0 0 165.031 70.75" xmlns="http://www.w3.org/2000/svg" xmlns:xlink="http://www.w3.org/1999/xlink"><style>:root>svg{display:none}:root>svg:target{display:block}</style><svg viewBox="0 0 30 30" id="icon" xmlns="http://www.w3.org/2000/svg"><path d="M28.529 11.76l-3-.57v-.01a.559.559 0 01-.392-.95s-.006-.01-.008-.01l1.672-2.53a1.753 1.753 0 00-.186-2.26l-2.1-2.1a1.759 1.759 0 00-2.266-.19l-2.494 1.7h-.012a.594.594 0 01-.346.13.559.559 0 01-.552-.5.014.014 0 00-.016-.01l-.607-2.99A1.765 1.765 0 0016.487 0h-2.963a1.763 1.763 0 00-1.734 1.47l-.56 2.97a.017.017 0 01-.018.01.565.565 0 01-.566.57.579.579 0 01-.4-.17.011.011 0 00-.013.01L7.694 3.12v.01a1.759 1.759 0 00-2.267.18l-2.094 2.1a1.747 1.747 0 00-.185 2.26v.01l1.717 2.59a.568.568 0 01.132.36.556.556 0 01-.506.55.038.038 0 000 .01l-3 .57a1.761 1.761 0 00-1.473 1.73v2.97a1.759 1.759 0 001.471 1.73l3.017.62v.01a.543.543 0 01.365.88s.006.01.008.01l-1.75 2.57a1.747 1.747 0 00.186 2.26l2.1 2.1a1.757 1.757 0 002.266.18v.01l2.594-1.72s.011.01.017.01a.538.538 0 01.367-.14.56.56 0 01.559.52h.008l.57 3.03A1.763 1.763 0 0013.53 30h2.963a1.765 1.765 0 001.735-1.47l.619-3.04a.012.012 0 01.013-.01.546.546 0 01.852-.35s.008-.01.012-.01l2.547 1.69a1.757 1.757 0 002.265-.19l2.094-2.09a1.764 1.764 0 00.187-2.27l-1.7-2.5s.006 0 .006-.01a.564.564 0 01-.15-.38.57.57 0 01.543-.56l3.017-.62a1.759 1.759 0 001.471-1.73v-2.97a1.759 1.759 0 00-1.475-1.73zm-17.055 3.22A3.527 3.527 0 1115 18.5a3.528 3.528 0 01-3.526-3.52z" fill="#eb4f4e" fill-rule="evenodd"/></svg><svg viewBox="0 0 56 60" id="icon-clever" xmlns="http://www.w3.org/2000/svg"><defs><filter id="ba" x="822" y="918" width="56" height="60" filterUnits="userSpaceOnUse"><feOffset result="offset" dy="4" in="SourceAlpha"/><feGaussianBlur result="blur"/><feFlood result="flood" flood-opacity=".15"/><feComposite result="composite" operator="in" in2="blur"/><feBlend result="blend" in="SourceGraphic"/></filter></defs><path d="M870.116 946.231a14.252 14.252 0 003.4-2.485 15.253 15.253 0 00.168-21.385 14.57 14.57 0 00-10.429-4.345 15.023 15.023 0 00-10.74 4.516A14.461 14.461 0 00850 926.07a14.491 14.491 0 00-2.518-3.553 15.034 15.034 0 00-10.738-4.53 14.543 14.543 0 00-10.43 4.316 15.182 15.182 0 00.169 21.329 13.746 13.746 0 003.55 2.52 14.414 14.414 0 00-3.437 2.4 15.005 15.005 0 00-4.551 10.782 14.653 14.653 0 0014.72 14.678 15.127 15.127 0 0010.646-4.366 14.617 14.617 0 002.589-3.605 14.563 14.563 0 002.585 3.6 15.128 15.128 0 0010.647 4.367 14.653 14.653 0 0014.72-14.677 15.013 15.013 0 00-4.551-10.784 14.228 14.228 0 00-3.285-2.316zm-38.152-18.28a7.1 7.1 0 019.912.17C844.8 931 846.026 941.976 846 942s-10.941-1.43-13.867-4.305a6.81 6.81 0 01-.169-9.744zm9.832 35.071a7.27 7.27 0 01-9.818.161 6.24 6.24 0 01.171-9.216c2.9-2.72 13.839-3.975 13.861-3.955s-1.31 10.288-4.21 13.01zm26.254.161a7.3 7.3 0 01-9.838-.161c-2.9-2.72-4.245-12.989-4.222-13.01s10.984 1.235 13.889 3.955a6.233 6.233 0 01.171 9.216zm0-35.217a6.964 6.964 0 00-9.834.172c-2.9 2.9-4.243 13.838-4.22 13.86s10.98-1.315 13.883-4.213a6.94 6.94 0 00.172-9.819z" transform="translate(-822 -918)" fill="#fff" fill-rule="evenodd" filter="url(#ba)"/></svg><svg viewBox="0 0 64.5 41.531" id="icon-cloud" xmlns="http://www.w3.org/2000/svg"><defs><filter id="ca" x="1142.5" y="925.5" width="64.5" height="41.531" filterUnits="userSpaceOnUse"><feOffset result="offset" dx="3" in="SourceAlpha"/><feGaussianBlur result="blur"/><feFlood result="flood" flood-color="#232324" flood-opacity=".4"/><feComposite result="composite" operator="in" in2="blur"/><feBlend result="blend" in="SourceGraphic"/></filter></defs><path data-name="Cloud base" d="M1203.97 956.3a10.739 10.739 0 01-9.95 10.706v.04h-39.89v-.015a11.913 11.913 0 01-3.38-23.246c0-.084-.01-.165-.01-.249a11.3 11.3 0 0117.73-9.3 14.149 14.149 0 0127.22 5.417 14.013 14.013 0 01-1.32 5.968 10.743 10.743 0 019.6 10.679z" transform="translate(-1142.5 -925.5)" fill="#fff" fill-rule="evenodd" filter="url(#ca)"/></svg><svg viewBox="0 0 83 41" id="icon-infinity" xmlns="http://www.w3.org/2000/svg"><path d="M46.354 20.073C56.768 33.029 63.018 32 65 32c2.127 0 10-2.554 10-12A11.559 11.559 0 0064 8c-2.678 0-8.853 1.628-17.646 12.072M41.5 13.736C51.96.7 59.143 0 64 0c7.488 0 19 6.8 19 20 0 14.893-13.061 21-19 21-5.482 0-12.708-3.051-22.5-14.867m0 0C31.708 37.949 24.482 41 19 41c-5.939 0-19-6.107-19-21C0 6.8 11.512 0 19 0c4.857 0 12.04.7 22.5 13.737m-4.854 6.336C27.853 9.629 21.678 8 19 8A11.559 11.559 0 008 20c0 9.447 7.873 12 10 12 1.982 0 8.232 1.028 18.646-11.928" fill="#fff" fill-rule="evenodd"/></svg><svg viewBox="0 0 36.76 70.75" id="left-chev" xmlns="http://www.w3.org/2000/svg"><path d="M36.76 35.404L1.41 70.759 0 69.345l33.97-33.97L0 1.405 1.41-.01l35.35 35.356-.02.029z" style="mix-blend-mode:overlay" fill="#fff" fill-rule="evenodd"/></svg><svg viewBox="0 0 165.031 63.031" id="logo" xmlns="http://www.w3.org/2000/svg"><defs><filter id="fa" x="55.031" y="11.031" width="110" height="28" filterUnits="userSpaceOnUse"><feOffset result="offset" dy="1" in="SourceAlpha"/><feGaussianBlur result="blur" stdDeviation="1"/><feFlood result="flood" flood-color="#c34b2a"/><feComposite result="composite" operator="in" in2="blur"/><feBlend result="blend" in="SourceGraphic"/></filter></defs><text data-name="Asingle Page Template" x=".031" y="59.031" fill="#fff" font-family="Bariol" font-size="17">Asingle Page Template</text><path d="M5 35a1 1 0 01-1 1H1a1 1 0 01-1-1v-5.375a1 1 0 011-1h3a1 1 0 011 1V35zm7 0a1 1 0 01-1 1H8a1 1 0 01-1-1V19a1 1 0 011-1h3a1 1 0 011 1v16zm7 0a1 1 0 01-1 1h-3a1 1 0 01-1-1V1a1 1 0 011-1h3a1 1 0 011 1v34zm7 0a1 1 0 01-1 1h-3a1 1 0 01-1-1V7.375a1 1 0 011-1h3a1 1 0 011 1V35zm7 0a1 1 0 01-1 1h-3a1 1 0 01-1-1V16.125a1 1 0 011-1h3a1 1 0 011 1V35zm7 0a1 1 0 01-1 1h-3a1 1 0 01-1-1V18.5a1 1 0 011-1h3a1 1 0 011 1V35zm7 0a1 1 0 01-1 1h-3a1 1 0 01-1-1V13.625a1 1 0 011-1h3a1 1 0 011 1V35z" fill="#232324" fill-rule="evenodd"/><text x="55.031" y="36.031" font-size="35" filter="url(#fa)" fill="#fff" font-family="Bariol">Motion</text></svg><svg viewBox="0 0 32 26" id="twitter-icon" xmlns="http://www.w3.org/2000/svg"><path d="M32 3.08a13.238 13.238 0 01-3.772 1.03A6.579 6.579 0 0031.115.48a13.324 13.324 0 01-4.168 1.59A6.572 6.572 0 0015.76 8.06 18.669 18.669 0 012.228 1.2 6.565 6.565 0 004.26 9.96a6.51 6.51 0 01-2.974-.82v.09a6.56 6.56 0 005.267 6.43 6.578 6.578 0 01-1.73.23 6.285 6.285 0 01-1.235-.12 6.566 6.566 0 006.133 4.56 13.187 13.187 0 01-8.154 2.82 13.489 13.489 0 01-1.566-.1A18.519 18.519 0 0010.064 26c12.077 0 18.679-10 18.679-18.68 0-.28-.006-.56-.017-.85A13.328 13.328 0 0032 3.08z" fill="#fff" fill-rule="evenodd"/></svg></svg>