<svg xmlns="http://www.w3.org/2000/svg" width="83" height="41"><path d="M46.354 20.073C56.768 33.029 63.018 32 65 32c2.127 0 10-2.554 10-12A11.559 11.559 0 0064 8c-2.678 0-8.853 1.628-17.646 12.072M41.5 13.736C51.96.7 59.143 0 64 0c7.488 0 19 6.8 19 20 0 14.893-13.061 21-19 21-5.482 0-12.708-3.051-22.5-14.867m0 0C31.708 37.949 24.482 41 19 41c-5.939 0-19-6.107-19-21C0 6.8 11.512 0 19 0c4.857 0 12.04.7 22.5 13.737m-4.854 6.336C27.853 9.629 21.678 8 19 8A11.559 11.559 0 008 20c0 9.447 7.873 12 10 12 1.982 0 8.232 1.028 18.646-11.928" fill="#fff" fill-rule="evenodd"/></svg>