<svg xmlns="http://www.w3.org/2000/svg" width="30" height="30"><path d="M28.529 11.76l-3-.57v-.01a.559.559 0 01-.392-.95s-.006-.01-.008-.01l1.672-2.53a1.753 1.753 0 00-.186-2.26l-2.1-2.1a1.759 1.759 0 00-2.266-.19l-2.494 1.7h-.012a.594.594 0 01-.346.13.559.559 0 01-.552-.5.014.014 0 00-.016-.01l-.607-2.99A1.765 1.765 0 0016.487 0h-2.963a1.763 1.763 0 00-1.734 1.47l-.56 2.97a.017.017 0 01-.018.01.565.565 0 01-.566.57.579.579 0 01-.4-.17.011.011 0 00-.013.01L7.694 3.12v.01a1.759 1.759 0 00-2.267.18l-2.094 2.1a1.747 1.747 0 00-.185 2.26v.01l1.717 2.59a.568.568 0 01.132.36.556.556 0 01-.506.55.038.038 0 000 .01l-3 .57a1.761 1.761 0 00-1.473 1.73v2.97a1.759 1.759 0 001.471 1.73l3.017.62v.01a.543.543 0 01.365.88s.006.01.008.01l-1.75 2.57a1.747 1.747 0 00.186 2.26l2.1 2.1a1.757 1.757 0 002.266.18v.01l2.594-1.72s.011.01.017.01a.538.538 0 01.367-.14.56.56 0 01.559.52h.008l.57 3.03A1.763 1.763 0 0013.53 30h2.963a1.765 1.765 0 001.735-1.47l.619-3.04a.012.012 0 01.013-.01.546.546 0 01.852-.35s.008-.01.012-.01l2.547 1.69a1.757 1.757 0 002.265-.19l2.094-2.09a1.764 1.764 0 00.187-2.27l-1.7-2.5s.006 0 .006-.01a.564.564 0 01-.15-.38.57.57 0 01.543-.56l3.017-.62a1.759 1.759 0 001.471-1.73v-2.97a1.759 1.759 0 00-1.475-1.73zm-17.055 3.22A3.527 3.527 0 1115 18.5a3.528 3.528 0 01-3.526-3.52z" fill="#eb4f4e" fill-rule="evenodd"/></svg>