<svg xmlns="http://www.w3.org/2000/svg" width="56" height="60"><defs><filter id="a" x="822" y="918" width="56" height="60" filterUnits="userSpaceOnUse"><feOffset result="offset" dy="4" in="SourceAlpha"/><feGaussianBlur result="blur"/><feFlood result="flood" flood-opacity=".15"/><feComposite result="composite" operator="in" in2="blur"/><feBlend result="blend" in="SourceGraphic"/></filter></defs><path d="M870.116 946.231a14.252 14.252 0 003.4-2.485 15.253 15.253 0 00.168-21.385 14.57 14.57 0 00-10.429-4.345 15.023 15.023 0 00-10.74 4.516A14.461 14.461 0 00850 926.07a14.491 14.491 0 00-2.518-3.553 15.034 15.034 0 00-10.738-4.53 14.543 14.543 0 00-10.43 4.316 15.182 15.182 0 00.169 21.329 13.746 13.746 0 003.55 2.52 14.414 14.414 0 00-3.437 2.4 15.005 15.005 0 00-4.551 10.782 14.653 14.653 0 0014.72 14.678 15.127 15.127 0 0010.646-4.366 14.617 14.617 0 002.589-3.605 14.563 14.563 0 002.585 3.6 15.128 15.128 0 0010.647 4.367 14.653 14.653 0 0014.72-14.677 15.013 15.013 0 00-4.551-10.784 14.228 14.228 0 00-3.285-2.316zm-38.152-18.28a7.1 7.1 0 019.912.17C844.8 931 846.026 941.976 846 942s-10.941-1.43-13.867-4.305a6.81 6.81 0 01-.169-9.744zm9.832 35.071a7.27 7.27 0 01-9.818.161 6.24 6.24 0 01.171-9.216c2.9-2.72 13.839-3.975 13.861-3.955s-1.31 10.288-4.21 13.01zm26.254.161a7.3 7.3 0 01-9.838-.161c-2.9-2.72-4.245-12.989-4.222-13.01s10.984 1.235 13.889 3.955a6.233 6.233 0 01.171 9.216zm0-35.217a6.964 6.964 0 00-9.834.172c-2.9 2.9-4.243 13.838-4.22 13.86s10.98-1.315 13.883-4.213a6.94 6.94 0 00.172-9.819z" transform="translate(-822 -918)" fill="#fff" fill-rule="evenodd" filter="url(#a)"/></svg>