<svg xmlns="http://www.w3.org/2000/svg" width="32" height="26"><path d="M32 3.08a13.238 13.238 0 01-3.772 1.03A6.579 6.579 0 0031.115.48a13.324 13.324 0 01-4.168 1.59A6.572 6.572 0 0015.76 8.06 18.669 18.669 0 012.228 1.2 6.565 6.565 0 004.26 9.96a6.51 6.51 0 01-2.974-.82v.09a6.56 6.56 0 005.267 6.43 6.578 6.578 0 01-1.73.23 6.285 6.285 0 01-1.235-.12 6.566 6.566 0 006.133 4.56 13.187 13.187 0 01-8.154 2.82 13.489 13.489 0 01-1.566-.1A18.519 18.519 0 0010.064 26c12.077 0 18.679-10 18.679-18.68 0-.28-.006-.56-.017-.85A13.328 13.328 0 0032 3.08z" fill="#fff" fill-rule="evenodd"/></svg>